Coordinates
version=1
nRows=17
nColumns=24
inDegrees=yes

Units are S.I. units (second, meters, Newtons, ...)
Angles are in degrees.

endheader
time	pelvis_tilt	pelvis_list	pelvis_rotation	pelvis_tx	pelvis_ty	pelvis_tz	hip_flexion_r	hip_adduction_r	hip_rotation_r	knee_angle_r	ankle_angle_r	subtalar_angle_r	mtp_angle_r	hip_flexion_l	hip_adduction_l	hip_rotation_l	knee_angle_l	ankle_angle_l	subtalar_angle_l	mtp_angle_l	lumbar_extension	lumbar_bending	lumbar_rotation
      1.35783333	      5.45323790	     -0.50843979	     -4.54314728	      0.86769731	      0.97522177	      0.30710230	    -30.08746287	      0.57446364	      0.30982909	     -3.33106722	     14.57773915	      0.45436403	     -1.84408995	     18.55395600	     -1.69765156	      0.63682072	      9.17767465	      2.09244026	     -5.78575952	     -3.63100541	    -20.42192785	      5.14229529	      8.90110379
      1.36200000	      5.46237570	     -0.41351502	     -4.63974061	      0.87365173	      0.97449151	      0.30693088	    -30.27662909	      0.38464891	      0.24183321	     -3.64718065	     14.40208211	      0.52757119	     -1.70960276	     18.71665132	     -1.61649945	      0.88416890	      8.38360132	      2.21275114	     -6.09026636	     -3.62332799	    -20.42749728	      4.95319190	      8.91374063
      1.36616667	      5.47296463	     -0.33609189	     -4.73682971	      0.87964561	      0.97377892	      0.30674935	    -30.46196102	      0.21157568	      0.16659296	     -3.96498529	     14.11491775	      0.50654200	      3.29404968	     18.85811578	     -1.54992744	      1.19974781	      7.59632182	      2.18204680	     -6.59726437	     -3.35511409	    -20.43762681	      4.79989570	      8.92891499
      1.37033333	      5.46860513	     -0.21168189	     -4.83411578	      0.88575116	      0.97307513	      0.30657506	    -30.64105884	     -0.00410106	      0.08282349	     -4.27211039	     13.85996754	      0.54568254	      3.31447792	     19.02617707	     -1.42803499	      1.39272160	      6.74811493	      2.20629063	     -6.89366934	     -3.35252175	    -20.40743854	      4.56622124	      8.93724232
      1.37450000	      5.43735312	     -0.10960681	     -4.92514332	      0.89188270	      0.97235280	      0.30635115	    -30.76882245	     -0.19596871	     -0.02225705	     -4.62679651	     13.62073071	      0.61663064	      3.41787414	     19.20663464	     -1.32240648	      1.67110183	      5.91122609	      2.08089125	     -7.40961645	     -3.33996652	    -20.34882535	      4.38894473	      8.97027639
      1.37866667	      5.45255489	      0.02320902	     -5.04671138	      0.89809127	      0.97172628	      0.30618230	    -30.95085391	     -0.43239184	     -0.09366891	     -4.96654278	     13.31907115	      0.58611517	      3.45915989	     19.34087949	     -1.18469500	      1.79284752	      5.03472587	      2.01754631	     -7.75321224	     -3.33242978	    -20.32891178	      4.14578348	      8.96719129
      1.38283333	      5.39473997	      0.14232904	     -5.13343904	      0.90435701	      0.97101544	      0.30594295	    -31.05481443	     -0.63341096	     -0.18103498	     -5.31029050	     12.99680898	      0.58390957	      3.68996880	     19.51134992	     -1.05070690	      2.12582479	      4.24475831	      1.64480974	     -8.48646841	     -3.28909153	    -20.23408010	      3.94441331	      9.02160711
      1.38700000	      5.39006670	      0.30904569	     -5.25774080	      0.91069513	      0.97041534	      0.30575901	    -31.20407925	     -0.90148772	     -0.26989113	     -5.66540800	     12.62042980	      0.52439519	      3.80277387	     19.64699985	     -0.86957532	      2.22177791	      3.38158793	      1.42965867	     -8.86043517	     -3.26791555	    -20.19035521	      3.65508866	      9.01359771
      1.39116667	      5.33718516	      0.43794472	     -5.36092065	      0.91706654	      0.96977850	      0.30551662	    -31.29394977	     -1.11864476	     -0.35302038	     -6.03961032	     12.24113312	      0.44909822	      4.19287910	     19.79586777	     -0.71590577	      2.47858825	      2.60197642	      0.88528359	     -9.67661689	     -3.20280766	    -20.07407766	      3.45142035	      9.07712259
      1.39533333	      5.33866232	      0.62159508	     -5.49982615	      0.92350932	      0.96924940	      0.30531659	    -31.42455850	     -1.41289655	     -0.47060177	     -6.42466788	     11.73221498	      0.28128698	      9.78082916	     19.89321616	     -0.50870928	      2.54528251	      1.80083397	      0.39713199	    -10.23313217	     -2.09469095	    -20.02589215	      3.15886326	      9.03401112
      1.39950000	      5.29136881	      0.81168745	     -5.61179927	      0.93002568	      0.96869750	      0.30508668	    -31.50902785	     -1.69135339	     -0.58259213	     -6.80706999	     11.22742367	      0.17883666	      9.80866982	     20.06409193	     -0.28794737	      2.53766642	      0.94880099	     -0.05526430	    -10.61362728	     -2.10607742	    -19.90226279	      2.84966415	      9.06968556
      1.40366667	      5.22540397	      0.97636408	     -5.73353679	      0.93654544	      0.96816117	      0.30484298	    -31.55029503	     -1.94724422	     -0.64573509	     -7.23157142	     10.74437445	     -0.00560762	      9.96851693	     20.21067184	     -0.08947695	      2.67504241	      0.20216920	     -0.80992430	    -11.42517291	     -2.10642954	    -19.76766909	      2.60175796	      9.15909290
      1.40783333	      5.18554669	      1.20421623	     -5.86101371	      0.94316282	      0.96769659	      0.30461265	    -31.61024676	     -2.27050570	     -0.78082980	     -7.66319742	     10.18661876	     -0.13638191	     10.04758733	     20.37028411	      0.17155798	      2.56349294	     -0.63559153	     -1.38895357	    -11.75286027	     -2.10801540	    -19.64540117	      2.25625012	      9.13581160
      1.41200000	      5.10751784	      1.39032277	     -5.97866917	      0.94976406	      0.96723297	      0.30434528	    -31.61305279	     -2.54083233	     -0.84140405	     -8.12418930	      9.63712590	     -0.39340753	     10.35653437	     20.52614539	      0.40016676	      2.64601306	     -1.36781516	     -2.30179737	    -12.58973380	     -2.07788872	    -19.47929152	      1.97962777	      9.21780130
      1.41616667	      5.07110645	      1.63968143	     -6.10231955	      0.95646864	      0.96685719	      0.30409229	    -31.64418909	     -2.88262932	     -1.00586243	     -8.60555829	      8.98965963	     -0.54952068	     10.48518911	     20.68138481	      0.68839285	      2.47173164	     -2.19501965	     -2.96553820	    -12.85815081	     -2.06955837	    -19.33934757	      1.60995497	      9.18632733
      1.42033333	      4.99939195	      1.86881468	     -6.21059601	      0.96315165	      0.96647430	      0.30375854	    -31.60762346	     -3.19993312	     -1.17602807	     -9.12958852	      8.29438668	     -0.77808303	     16.73582063	     20.83332130	      0.97311837	      2.52548241	     -2.91884743	     -3.95854784	    -13.65730288	     -1.04113819	    -19.18453372	      1.30727317	      9.20098905
      1.42450000	      4.94553159	      2.13613739	     -6.32792494	      0.96990241	      0.96617173	      0.30348943	    -31.59439720	     -3.54806714	     -1.29231527	     -9.64230767	      7.58230147	     -1.07042078	     16.76091060	     21.01670306	      1.28123812	      2.29842159	     -3.75932897	     -4.66663772	    -13.88820833	     -1.05972866	    -19.03103611	      0.92151382	      9.20011562
